/* XPM */
static char *_6161cec6aed4d5cee3169313a4a8e6bIifwUFSEWLprM7D6[] = {
/* columns rows colors chars-per-pixel */
"64 64 48 1 ",
"  c #E58B25",
". c #E58C25",
"X c #E68E26",
"o c #E68E27",
"O c #E78F27",
"+ c #E79027",
"@ c #E79028",
"# c #E89329",
"$ c #E8942A",
"% c #E9952A",
"& c #EA972C",
"* c #EA982C",
"= c #EB992C",
"- c #EC9B2E",
"; c #EC9C2E",
": c #ED9E2F",
"> c #ED9F30",
", c #EEA130",
"< c #EEA231",
"1 c #EFA432",
"2 c #EFA533",
"3 c #F0A533",
"4 c #F0A633",
"5 c #F0A734",
"6 c #F1A834",
"7 c #F2AA36",
"8 c #F2AC36",
"9 c #F3AC37",
"0 c #F3AF38",
"q c #F4AF38",
"w c #F4B038",
"e c #F4B139",
"r c #F5B23A",
"t c #F6B43B",
"y c #F6B63C",
"u c #F7B73C",
"i c #F7B73D",
"p c #F7B83D",
"a c #F8B93D",
"s c #F9BD3F",
"d c #F9BD40",
"f c #FABE40",
"g c #FBC242",
"h c #FCC343",
"j c #FCC443",
"k c #FCC544",
"l c #FDC644",
"z c #FFCB47",
/* pixels */
" %lzzzzzzzzzzzzzzzz5 7zzzzzzzzzzzzzzzzzzzzzza7%oooo @*67tszzzzzz",
"* *zzzzzzzzzzzzzzzzg ohzzzzzzzzzzzzzzzzzza3@ o o%1tgzzzzzzzzzzzz",
"l% :zzzzzzzzzzzzzzzz>o,zzzzzzzzzzzzzzza3o   %7pzzzzzzzzzzzzzzzzz",
"zg@ 1zzzzzzzzzzzzzzzgo 7zzzzzzzzzzzg3@ooo% ojzzzzzzzzzzzzzzzzzzz",
"zzfo 7zzzzzzzzzzzzzzza  rzzzzzzzza: oo%8h,o5zzzzzzzzzzzzzzzzzzzz",
"zzzao rzzzzzzzzzzzzzzzro 7zzzzzr*  o1szzh ogzzzzzzzzzzzzzzzzzzzz",
"zzzzro pzzzzzzzzzzzzzzzao -jz8#oo%rzzzzz1 1zzzzzzzzzzzzzzzzzzzzz",
"zzzzz7 ogzzzzzzzzzzzzzzzf# oo  *tzzzzzzjo lzzzzzzzzzzzzzzzzzzzzz",
"zzzzzz:o*zzzzzzzzzzzzzzzl2  o,fzzzzzzzz1o,zzzzzzzzzzzzzzzzzzzzzz",
"zzzzzzz%o8zzzzzzzzzzzzzp%  :gzzzzzzzzzloogzzzzzzzzzzzzzzzzzzzzzz",
"zzzzzzzs  pzzzzzzzzzzg>oo%szzzzzzzzzzz, ,zzzzzzzzzzzjpw1>:*%:>7r",
"zzzzzzzz7o%zzzzzzzzz7o oyzzzzzzzzzzzzlo jzzzzzzzg7:ooo.oo +oo  o",
"zzzzzzzzz%o7zzzzzzp%  #zzzzzzzzzzzzzz8o,zzzzzt,$o.  o:17rrs: 683",
"zzzzzzzzzs ojzzzl,o % *zzzzzzzzzzzzzjooszzg7+o  +1rgzzzzzzzo gzz",
"zzzzzzzzzz,o1zza# o0f >zzzzzzzzzzzzz7 ,zr*o  %: 7zzzzzzzzzt :zzz",
"zzzzzzzzzzjo a7o &gzf -zzzzzzzzzzzzj+o*+  @7gz8o7zzzzzzzzz:.rzzz",
"zzzzzzzzzzz7 oo 7zzzs *zzzzzzzzzzzz7  o+>tzzzzr.1zzzzzzzzjo jzzz",
"zzzzzzzzzzzs  %szzzzso%zzzzzzzzzzzro o1jzzzzzzr.>zzzzzzzzt :zzzz",
"zzzzzzzzzzto  tzzzzzjo+zzzzzzzzzzw  1jzzzzzzzzto>zzzzzzzj#.azzzz",
"zzzzzzzzz7ooo pzzzzzz% jzzzzzzzz8oorzzzzzzzzzzt >zzzzzzz6.>zzzzz",
"zzzzzzzg*+o8, tzzzzzz8orzzzzzzzro tzzzzzzzzzzzp.>zzzzzzg ohzzzzz",
"zzzzzj7oo@sz1otzzzzzzto,zzzzzza  wzzzzzzzzzzzzso>zzzzzz: 7zzzzzz",
"zzzg8o  ,zzz1oezzzzzzgo%zzzzzso 8zzzzzzzzzzzzzs :zzzzzt.+jzzzzzz",
"zr*   :szzzz1orzzzzzzz% azzzj#o5zzzzzzzzzzzzzzp :zzzzg+.rzzzzzzz",
"oo o:pzzzzzz7 tzzzzzzz7o%zzz: :zzzzzzzzzzzzzzzpo>zzzz%  1zzzzzzz",
"o:rzzzzzzzzz1 tzzzzzzzj+orzr  ,zzzzzzzzzzzzzzzt 1zzz>o@ooazzzzzz",
"zzzzzzzzzzzz,oazzzzzzzz7o.gooo 3zzzzzzzzzzzzzzt >zz8oogr.%jzzzzz",
"zzzzzzzzzzzz:oszzzzzzzzz% o ,fo 1zzzzzzzzzzzzzto1zto pzz>+%jzzzz",
"zzzzzzzzzzzz:oszzzzzzzzzjo ogzs+o>zzzzzzzzzzzzr >p..rzzzz* %lzzz",
"zzzzzzzzzzzz% gzzzzzzzzzz:o6zzzso 7zzzzzzzzzzz8 *oo7zzzzzj%o+tzz",
"zzzzzzzzzzzz%ogzzzzzzzzzs ojzzzzso pzzzzzzzzzz8o..3zzzzzzzj, o*j",
"zzzzzzzzzzzzoozzzzzzzzzz:.8zzzzzzro+gzzzzzzzzz7 .3zzzzzzzzzzr+ o",
"zzzzzzzzzzzzoozzzzzzzzzjoozzzzzzzz>.-zzzzzzzzz8.>zzzzzzzzzzzzl8+",
"zzzzzzzzzzzg $zzzzzzzzz5o1zzzzzzzzz% 8zzzzzzzz3 wzzzzzzzzzzzzzzz",
"zzzzzzzzzzzt *zzzzzzzzz+ tzzzzzzzzzt olzzzzzzz>.tzzzzzzzzzzzzzzz",
"zzzzzzzzzzz7o,zzzzzzzzg ozzzzzzzzzzz*o8zzzzzzz>.szzzzzzzzzzzzzzz",
"zzzzzzzzzzz:  &7jzzzzzw :zzzzzzzzzzzhoogzzzzzz% gzzzzzzzzzzzzzzz",
"zzzzzzzzzzz% o   *tzzz;orzzzzzzzzzzzz3 :zzzzzz+.jzzzzzzzzzzzzzzz",
"zzzzzzzzzzzo fs7@ooo>toozzzzzzzzzzzzzjoo771:>%oozzzzzzzzzzzzzzzz",
"zzzzzzzzzzgoozzzzp,    %jzzzzzzzzzzzs>o   . oo.$zzzzzzzzzzzzzzzz",
"zzzzzzzzzza &zzzzzzj8%o @rzzzzzzzzr*   *1rpjgto;zzzzzzzzzzzzzzzz",
"zzzzzzzzzzq ,zzzzzzzzza% o%rzzzzz: .%7gzzzzzzr >zzzzzzzzzzzzzzzz",
"zzzzzzzzzz5 rzzzzzzzzzzza*  *pzj* orzzzzzzzzz7 7zzzjpr8rrrrtzzzz",
"zzzzzzzzhy# fzzzzzzzzzzzzzt%  :+.%gzzzzzzzzzz: ra1%  o o  o o:8j",
"zzzzzj8%   olzzzzzzzzzzzzzzzr+  +zzzzzzzzzzzz%  +o o:+o186>>o   ",
"zzzz3o  #* *zzzzzzzzzzzzzzzzzz1o %gzzzzzzzzzzo o%5pzz:otzzzzzp1o",
"zzt@ o1az7o8zzzzzzzzzzzzzzzzzzza+ootzzzzzzzzg +jzzzzz1 rzzzzzzzz",
"l,  :gzzz% gzzzzzzzzzzzzzzzzzzzzz>  1zzzzzzzr.1zzzzzz7 wzzzzzzzz",
"ooopzzzzjo%zzzzzzzzzzzzzzzzzzzzzzzyo %gzzzzz, rzzzzzzwo6zzzzzzzz",
"o:jzzzzzr 1zzzzzzzzzzzzzzzzzzzzzzzzh: oyzzzz% szzzzzzt >zzzzzzzz",
"8zzzzzzz: tzzzzzzzzzzzzzzzzzzzzzzzza* o yzzh ozzzzzzzao:zzzzzzzz",
"zzzzzzzzoojzzzzzzzzzzzzzzzzzzzzzzy*  #2  tzr >zzzzzzzs %zzzzzzzz",
"zzzzzzzso*zzzzzzzzzzzzzzzzzzzzs3@o #tzz0  r, rzzzzzzzg +zzzzzzzz",
"zzzzzzz1 8zzzzzzzzzzzzzzzzsr,%   *rzzzzzr oo hzzzzzzzzoozzzzzzzz",
"zzzzzzz% szzzzzzzzzzzhy7*o oo #7gzzzzzzzz8  %zzzzzzzzz% pzzzzzzz",
"zzzzzzg #jhsgptw5,-%o   oo*3rgzzzzzzzzzzzz, 7zzzzzzzzz3orzzzzzzz",
"zzzzzz,      o      o:5tgzzzzzzzzzzzzzzzzzo gzzzzzzzzzr ,zzzzzzz",
"zzzzzlo #%&>,,20qrpgzzzzzzzzzzzzzzzzzzzzzyo-zzzzzzzzzzgo+zzzzzzz",
"zzzzz0 &zzzzzzzzzzzzzzzzzzzzzzzzzzzzzzzzz%oyzzzzzzzzzzzoolzzzzzz",
"zzzzz@ rzzzzzzzzzzzzzzzzzzzzzzzzzzzzzzzzs ozzzzzzzzzzzz, 8zzzzzz",
"zzzzf ozzzzzzzzzzzzzzzzzzzzzzzzzzzzzzzzz: 7zzzzzzzzzzzzs %zzzzzz",
"zzzz, 7zzzzzzzzzzzzzzzzzzzzzzzzzzzzzzzzto@jzzzzzzzzzzzzz#oyzzzzz",
"zzzl  hzzzzzzzzzzzzzzzzzzzzzzzzzzzzzzzz# rzzzzzzzzzzzzzz8o*zzzzz",
"zzze >zzzzzzzzzzzzzzzzzzzzzzzzzzzzzzzz7 %zzzzzzzzzzzzzzzh ogzzzz"
};
