/* XPM */
static char *ceb8f82182644196f4fa1b4f82af758enDNfhdeF1NYCWQyP[] = {
/* columns rows colors chars-per-pixel */
"64 64 203 2 ",
"   c #000000",
".  c #060A47",
"X  c #010100",
"o  c #000101",
"O  c #020200",
"+  c #030301",
"@  c #000202",
"#  c #000303",
"$  c #040401",
"%  c #050501",
"&  c #060601",
"*  c #000404",
"=  c #000504",
"-  c #000505",
";  c #000706",
":  c #080702",
">  c #000807",
",  c #0A0902",
"<  c #0B0A02",
"1  c #0B0B03",
"2  c #0D0C03",
"3  c #0E0D03",
"4  c #000B0A",
"5  c #000C0A",
"6  c #000C0B",
"7  c #000D0B",
"8  c #000D0C",
"9  c #000E0D",
"0  c #140F01",
"q  c #100F04",
"w  c #00100E",
"e  c #111004",
"r  c #121004",
"t  c #121104",
"y  c #141204",
"u  c #1F1701",
"i  c #181606",
"p  c #1A1806",
"a  c #001311",
"s  c #001513",
"d  c #001614",
"f  c #001714",
"g  c #001815",
"h  c #001916",
"j  c #001917",
"k  c #001A18",
"l  c #001C1A",
"z  c #001E1A",
"x  c #001F1C",
"c  c #00211D",
"v  c #00231E",
"b  c #262309",
"n  c #272409",
"m  c #292609",
"M  c #2B280A",
"N  c #2E2A0A",
"B  c #332F0C",
"V  c #3A350D",
"C  c #3C370E",
"Z  c #3E390E",
"A  c #002520",
"S  c #002722",
"D  c #002823",
"F  c #002A26",
"G  c #002C27",
"H  c #002D27",
"J  c #002C28",
"K  c #002D28",
"L  c #002E2A",
"P  c #00312C",
"I  c #00312D",
"U  c #00322C",
"Y  c #003530",
"T  c #003631",
"R  c #003832",
"E  c #003932",
"W  c #003C36",
"Q  c #003C37",
"!  c #003D37",
"~  c #003E38",
"^  c #403B0F",
"/  c #413C0F",
"(  c #443F0F",
")  c #004139",
"_  c #00403A",
"`  c #00413A",
"'  c #00423C",
"]  c #00443E",
"[  c #00463E",
"{  c #454010",
"}  c #595214",
"|  c #5B5415",
" . c #6F6619",
".. c #706719",
"X. c #766D1B",
"o. c #776E1B",
"O. c #7B711C",
"+. c #7C721C",
"@. c #7D731C",
"#. c #7E741D",
"$. c #004940",
"%. c #004B42",
"&. c #004A43",
"*. c #004B44",
"=. c #004C45",
"-. c #005449",
";. c #00554D",
":. c #00574F",
">. c #00584D",
",. c #005C50",
"<. c #005C53",
"1. c #005E55",
"2. c #005F56",
"3. c #006054",
"4. c #006057",
"5. c #006359",
"6. c #00675A",
"7. c #00655C",
"8. c #00685B",
"9. c #00695C",
"0. c #00695D",
"q. c #006A5D",
"w. c #00685E",
"e. c #00695F",
"r. c #006B5E",
"t. c #006C5F",
"y. c #006A61",
"u. c #006E61",
"i. c #006C62",
"p. c #007164",
"a. c #007066",
"s. c #007267",
"d. c #007368",
"f. c #007568",
"g. c #007769",
"h. c #00756A",
"j. c #00776A",
"k. c #00766B",
"l. c #00776C",
"z. c #00786D",
"x. c #007A6E",
"c. c #007C71",
"v. c #007E71",
"b. c #007D72",
"n. c #007F72",
"m. c #80761D",
"M. c #83791E",
"N. c #857B1E",
"B. c #008175",
"V. c #008275",
"C. c #008375",
"Z. c #008377",
"A. c #008476",
"S. c #008678",
"D. c #008679",
"F. c #00877A",
"G. c #00897B",
"H. c #008A7D",
"J. c #008C7F",
"K. c #008D7F",
"L. c #918621",
"P. c #928721",
"I. c #978B23",
"U. c #988C23",
"Y. c #9D9124",
"T. c #A19425",
"R. c #A79A26",
"E. c #BAAB2A",
"W. c #BDAE2B",
"Q. c #BEAF2B",
"!. c #C2B32C",
"~. c #C5B62D",
"^. c #C6B62D",
"/. c #FEC108",
"(. c #D1C130",
"). c #D5C430",
"_. c #D7C631",
"`. c #D9C831",
"'. c #DCCB32",
"]. c #DECD32",
"[. c #DFCE33",
"{. c #E1CF33",
"}. c #E4D234",
"|. c #E7D535",
" X c #E8D635",
".X c #E9D735",
"XX c #F2DF37",
"oX c #F5E238",
"OX c #F6E338",
"+X c #F7E438",
"@X c #F8E538",
"#X c #F9E539",
"$X c #FCE839",
"%X c #FDE93A",
"&X c #FEEA3A",
"*X c #FFEB3A",
"=X c #008D80",
"-X c #008E80",
";X c #008F81",
":X c #009082",
">X c #009486",
",X c #009587",
"<X c #009688",
/* pixels */
"                                                            . . . .                                                             ",
"                                                        . . . . . . . .                                                         ",
"                                                        . . m.Q.Q.O.. .                                                         ",
"                                                        . . ^.*X*XQ.. .                                                         ",
"                                                        . . N.*X*X+.. .                                                         ",
"                                                        . . < t t < .                                                           ",
"                                                        . . . . . . . .                                                         ",
"                                                        . > z d d z ; .                                                         ",
"                                                        . w 9.w.w.w.7 .                                                         ",
"                                                        . ; v A v A ; .                                                         ",
"                                                        . . . . . . . .                                                         ",
"                                                        . + y y 0 y . .                                                         ",
"                                                        . n *X*X/./.u .                                                         ",
"                                                        . n *X*X/./.u .                                                         ",
"                                                        . n *X*X/./.u .                                                         ",
"                                                        . n *X*X/./.u .                                                         ",
"                                                        . . . . . . . .                                                         ",
"                                                      . . . . . . . . .                                                         ",
"                                                      . . ~ Z.Z.t.>.D . .                                                       ",
"                                                      . . Z.<X<XK.t.>.. .                                                       ",
"                                                    . . P <X<X<X<Xg.9.c . .                                                     ",
"                                                  . . . l.<X<X<X<X:Xt.-.. . .                                                   ",
"                                                . . . 2.<X<X<X<X<X<XJ.t.) . . .                                                 ",
"                                                . . :.<X<X<X<X<X<X<X<XG.w.E . .                                                 ",
"                                              . . =.<X<X<Xw.c.<X<X<X<X<XG.w.U . .                                               ",
"                                            . . ] <X<XJ.P . k <X<X<X<X<X<XG.t.H . .                                             ",
"                                          . . ~ <X<X=Xd . . 2.<X<X<X<X<X<X<XA.9.D . .                                           ",
"                                        . . T >X<X<XP . w l.<X<X<X<X<X<X<X<X>XA.9.v . .                                         ",
"                                      . . k >X<X<Xd.. . k.<X<X<X<X<X<X<X<X<X<X<Xp.6.w . .                                       ",
"                                      . . y.<X<X<XD.F 7.<X<X<X<X<X<X<X<X<X<X<X<XG.9.[ . .                                       ",
"                                      . x <X<X<X<X<X<X<X<X<X<X<X<X<X<X<X<X<X<X<X<Xp.w.s .                                       ",
"                                    . . ' <X<X<X<X<X<X<X<X<X<X<X<X<X<X<X<X<X<X<X>Xg.9.K . .                                     ",
"                                    . . 4.<X<X<X<Xc.9 . . . . . . . . . . 9 c.<X<XV.9.) + .                                     ",
"                                    . . a.<X<X<X<X~ . . . . . . . . . . . . ~ <X<XA.9.[ . .                                     ",
"                                    . . a.<X<X<Xd.; . L.[.[.[.[.}.].].[.L.. > d.<XA.9.%.. .                                     ",
"                                    . . a.<Xl.k . . B *X*X*X*X*X*X*X*X*X*XN . . k w.9.%.. .                                     ",
"                                    . . a.<X) . . | }.*X*X*X*X*X*X*X*X*X*X{.} . . E w.%.. .                                     ",
"                                    . . a.<X~ . ..*X*X*X*X*X*X*X*X*X*X*X*X*X*X .+ I 9.%.. .                                     ",
"                                    . . a.<X~ . o.*X*X*X*X*X*X*X*X*X*X*X*X*X*Xo.. T w.%.. .                                     ",
"                                    . . a.<XQ . o.*X*X*X*X*X*X*X*X*X*X*X*X*X*Xo.+ I 9.%.. .                                     ",
"                                    . . a.<XQ . o.*X*X*X*X*X*X*X*X*X*X*X*X*X*Xo.. I w.%.. .                                     ",
"                                    . . a.<XQ . o.*X*XE.[.*X*X*X*X*X*X].^.*X*Xo.. T w.%.. .                                     ",
"                                    . . a.<XQ . o.*X!.. : M.@X*X*X@X#.& . _.*Xo.. E 9.%.. .                                     ",
"                                    . . a.<XQ . o.*XoXV . . m !.Q.b . . ( *X*Xo.. I 9.%.. .                                     ",
"                                    . . a.<XQ . o.*X*X*XU.q . . . . t Y.*X*X*Xo.. T 9.%.. .                                     ",
"                                    . . a.<X) . o.*X*X*X*XL.& . . : I.*X*X*X*Xo.+ I 9.%.. .                                     ",
"                                    . . a.<XQ . o.*X*X`.( . . p i . . ( '.*X*Xo.. T 9.%.. .                                     ",
"                                    . . a.<XQ . o.*XXX2 . & O.OXoXo.& . q oX*Xo.. T 9.%.. .                                     ",
"                                    . . a.<XQ . o.*X|.n Z _.*X*X*X*X(.V M  X*Xo.. E 9.%.. .                                     ",
"                                    . . a.<XQ . o.*X*X$X*X*X*X*X*X*X*X*X*X*X*Xo.. I 9.%.. .                                     ",
"                                    . . a.<XQ . o.*X*X*X*X*X*X*X*X*X*X*X*X*X*Xo.. T 9.%.. .                                     ",
"                                    . . a.<XQ . o.*X*X*X*X*X*X*X*X*X*X*X*X*X*Xo.+ I w.%.. .                                     ",
"                                    . . a.<XQ . ( |.*X*X*X*X*X*X*X*X*X*X*X*X.X^ . T w.%.. .                                     ",
"                                    . . a.<X&.. . 3 R.*X*X*X*X*X*X*X*X*X*XY.3 . . ) 9.%.. .                                     ",
"                                    . . a.<X:X,.h . 3 |.*X*X*X*X*X*X*X*X|.< . h :.V.9.%.. .                                     ",
"                                    . . a.<X<X<X<Xh . ( o.o.o.o.o.o.o.o.( . h >X>XA.9.%.. .                                     ",
"                                    . . a.<X<X<X<X>.. . . . . . . . . . . . >.<X<XA.w.%.. .                                     ",
"                                    . . a.<X<X<X<X:X&.) Q Q Q Q Q ~ Q Q Q =.:X<X>XA.9.%.. .                                     ",
"                                    . . w.>X<X<X<X<X<X<X<X<X<X<X<X<X<X<X<X<X<X<X<XA.9.] . .                                     ",
"                                    . . s H.<X<X<X<X<X<X<X<X<X<X<X<X<X<X<X<X<X<X<Xg.3.7 . .                                     ",
"                                      . . 9 ) k.<X<X<X<X<X<X<X<X<X<X<X<X<X<X<X>X6.H > . .                                       ",
"                                        . . . . 4 z J Q =.<.i.x.x.i.<.=.Q F d 4 . . . .                                         ",
"                                            . . . . . . . . . . . . . . . . . . . .                                             ",
"                                                    . . . . . . . . . . . .                                                     "
};
