/* XPM */
static char *_b92db51285a4764d8aedc47eecf63a7uBb11pHHPwodQeyf[] = {
/* columns rows colors chars-per-pixel */
"64 64 99 2 ",
"   c #000000",
".  c #060A47",
"X  c #090605",
"o  c #0C0807",
"O  c #070708",
"+  c #0B0B0B",
"@  c #130E0B",
"#  c #17100D",
"$  c #1F1409",
"%  c #0F0F10",
"&  c #131314",
"*  c #1E1512",
"=  c #171718",
"-  c #181719",
";  c #1B1B1C",
":  c #2B1A0A",
">  c #231713",
",  c #231814",
"<  c #291C17",
"1  c #2A1D18",
"2  c #35231D",
"3  c #1F1F21",
"4  c #201F22",
"5  c #222224",
"6  c #272629",
"7  c #28272A",
"8  c #2D2C2E",
"9  c #372620",
"0  c #2F2E32",
"q  c #302F32",
"w  c #323234",
"e  c #353538",
"r  c #38373A",
"t  c #3C3C3D",
"y  c #422C24",
"u  c #473129",
"i  c #4C342B",
"p  c #52362C",
"a  c #52392F",
"s  c #553B30",
"d  c #5C3E32",
"f  c #77471A",
"g  c #5C4034",
"h  c #6D493C",
"j  c #754D3E",
"k  c #3F3E43",
"l  c #403F43",
"z  c #434244",
"x  c #46454A",
"c  c #48474B",
"v  c #4B4A4D",
"b  c #4C4C51",
"n  c #504F54",
"m  c #525156",
"M  c #57565B",
"N  c #5B5B5C",
"B  c #765243",
"V  c #7B5444",
"C  c #7F5848",
"Z  c #8B5826",
"A  c #955921",
"S  c #AE6827",
"D  c #BA7936",
"F  c #D17C2E",
"G  c #805949",
"H  c #8B5B4A",
"J  c #8B604F",
"K  c #95624F",
"L  c #8F6351",
"P  c #966553",
"I  c #9F6955",
"U  c #9B6B58",
"Y  c #A06955",
"T  c #A46E5A",
"R  c #A6735F",
"E  c #A8725D",
"W  c #AC7762",
"Q  c #E5923F",
"!  c #DF9141",
"~  c #FBA045",
"^  c #8C8C8D",
"/  c #939394",
"(  c #989899",
")  c #9C9C9D",
"_  c #9D9D9F",
"`  c #A8A8AA",
"'  c #B0B0B2",
"]  c #B1B1B2",
"[  c #B5B5B7",
"{  c #C5C5C7",
"}  c #C6C6C8",
"|  c #C7C7C9",
" . c #D6D6D8",
".. c #D8D8D9",
"X. c #D8D8DA",
"o. c #DFDFE1",
"O. c #E0E0E2",
"+. c #E3E3E5",
"@. c #E8E8EA",
/* pixels */
"                                                                                                                                ",
"                                                                                                                                ",
"                                                                                                                                ",
"                                                                                                                                ",
"                                                              . .                                                               ",
"                                                            . . . .                                                             ",
"                                                          . . D S . .                                                           ",
"                                                          . . ! F . .                                                           ",
"                                                          . . ! F . .                                                           ",
"                                                          . . ! F . .                                                           ",
"                                            . . . . . . . . . X . . . . . . . . . . .                                           ",
"                    . . . . . . . 8     M 3 . . . . . . . . O + O O . . . . . . . . . . . . . . . . . . . .                     ",
"                    . O & - ; 3 7 m M M M m k z x x b m m M M M M M M M n v c z l t r e q 8 7 5 4 ; & & O .                     ",
"                  . . e M M M M M M M M M M M M M M M M M M M M M M M M M M M M M M M M M M M M M M b b 0 . .                   ",
"            . . . . . 8 M M M M M M M M M M M M M M M b M M M M M M M M m M M M M M M M M M M M M M b b 6 . . . . .             ",
"            . : A f . 5 M M M M M M M M M M M M M c - . O 8 M M M M 8 O . - c M M M M M M M M M M m b b ; . f A : .             ",
"          . . Z ~ Q . & M M M M M M M M M M M M M % . w # . t M M t . & w . % M M M M M M M M M M m b b & . Q ~ Z . .           ",
"            . . $ $ . O M M M M M M M M M M M b ; . t @.[ . - M M - . [ @.t . ; m M M M M M M M M n b b O . $ $ . .             ",
"              . . . . . M M M M M M M M M M m O . O ( @.] . 5 M M 5 . ] @.( X . O m M M M M M M M m b c . . . . .               ",
"                    . . c M M M M M M M M M e . N ..@.@.) . % m m % . ) @.@...N . e M M M M M M M b b k . .                     ",
"                    . . k M M M M M M M M M 7 . ( @.@.@.+.t . & % . t +.@.@.@.( . 7 M M M M M M M b b e . .                     ",
"                      . w M M M M M M M M M v . + z - v ..o.t . . k O...c - z + . v M M M M M M M b b 8 .                       ",
"                      . 5 M M M M M M M M M M w O . . . 0 ..o.t . 8 | 8 . . . O w M M M M M M M M b b 3 .                       ",
"                      . - M M M M M M M M M M M m n m & . 0 ..o.t . . . & m b n M M M M M M M M M b b & .                       ",
"                      . + M M M M M M M M M M M M M M b . . q ..O.t . . n M M M M M M M M M M M m b b + .                       ",
"                      . . M M M M M M M M M M M b x v & . + . 0 ..o.t . # v x b M M M M M M M M m b b . .                       ",
"                      . . m M M M M M M M M M 7 . . . . t  .t . 0 ..o.t . . . . 7 M M M M M M M m b x . .                       ",
"                      . . v M M M M M M M M x . - N w N o...0 . . 0 ..o.N w N ; . x M M M M M M n b z . .                       ",
"                      . . z M M M M M M M M 7 . _ @.@.@.O.q . & = . 0 o.@.@.@._ . 7 M M M M M M n b k . .                       ",
"                        . k M M M M M M M M r . v | @.@./ . & M m & . / @.@.| v . e M M M M M M n b e .                         ",
"                        . e M M M M M M M M M O . . ^ @.] . 5 M M 5 . ] @.^ . . O M M M M M M M b b 0 .                         ",
"                        . 0 M M M M M M M M M m 6 . w @.` . - M M ; . ` @.w . 6 M M M M M M M M b b 7 .                         ",
"                        . 7 M M M M M M M M M M M & . ; O . k M M l . O ; . & M M M M M M M M M n b 5 .                         ",
"                        . 5 M M M M M M M M M M M v 5 O % w M M M M w % O 3 v M M M M M M M M M b b ; .                         ",
"                        . - M M M M M M M M M M M M M m M M m z l m M M m M M M M M M M M M M M b b - .                         ",
"                        . & M M M M M M M M M M M M M M M 8 O . . O 8 M M M M M M M M M M M M M b b & .                         ",
"                        . + M M M M M M M M M M M M M M v . o u u + . v M M M M M M M M M M M m b b O .                         ",
"                        . O M M M M M M M M M M M M M M 7 . h W W h . 7 M M M M M M M M M M M M b b O .                         ",
"                        . . M M M M M M M M M M v w ; O . . B W W B . . O ; w v M M M M M M M M b b . .                         ",
"                        . . b M M M M M c w ; O . . . . o . B W W B . X X . . . O ; w c M M M m b z . .                         ",
"                        . . v M m w ; O . . . . 1 s C E i . B W W B . i W V s < . . . . O ; q c b k . .                         ",
"                        . . 5 8 O . . O 1 s G W W W W W i . B W W B . i W W W W W C s 1 X . . . 5 4 . .                         ",
"                          . . . . i V E W W W W W W W W i . B W W V . a W W W W W W W W E V i X . . .                           ",
"                            . . d Y T E W W W W W W W W i . B W W W g U W W W W W W W W W Y Y d . .                             ",
"                            . . j Y Y W W W W W W W W W i . B W W W W W W W W W W W W W W T I j . .                             ",
"                              . d Y Y W W W W W W W W W i . B W W W W W W W W W W W W W W I I d . .                             ",
"                              . y Y Y W W W W W W W W W i . B W W W W W W W W W W W W W W I I y .                               ",
"                              . > Y Y E W W W W W W W W i . B W W R 2 J W W W W W W W W E I Y > .                               ",
"                              . X I I T W W W W W W W W i . B W W B . i W W W W W W W W T Y Y X .                               ",
"                              . . H I Y W W W W W W W W i . B W W B . i W W W W W W W W T Y H . .                               ",
"                              . . j Y Y W W W W W W W W i . B W W B . i W W W W W W W W Y Y h . .                               ",
"                                . p Y Y W W W W W W W W i . B W W B . i W W W W W W W W Y Y p .                                 ",
"                                    . 2 K p 2 , , d P W W W i . * # # * . i W W W P u > @ 1 p K 2 .                             ",
"                                . O o . . . . . . * i a @ . . . . . . @ u i * . . . . . . O O . . .                             ",
"                                  . . .         . . . . . .         . . . . . .         . . . .                                 ",
"                                                                                                                                ",
"                                                                                                                                ",
"                                                                                                                                ",
"                                                                                                                                ",
"                                                                                                                                ",
"                                                                                                                                ",
"                                                                                                                                ",
"                                                                                                                                ",
"                                                                                                                                "
};
