/* XPM */
static char *_6f5bea7c2c74b93bc3bc5a0c408b592HWDXQ2wrjPontxQZ[] = {
/* columns rows colors chars-per-pixel */
"64 64 170 2 ",
"   c #000000",
".  c #060A47",
"X  c #0B0505",
"o  c #060708",
"O  c #070909",
"+  c #0B0B0B",
"@  c #0B0807",
"#  c #150B09",
"$  c #1D0D0D",
"%  c #150807",
"&  c #18110E",
"*  c #0C0F10",
"=  c #0E1212",
"-  c #131414",
";  c #1A1412",
":  c #161B1C",
">  c #1B1D1D",
",  c #131718",
"<  c #280E0E",
"1  c #230F10",
"2  c #251411",
"3  c #2A1512",
"4  c #271B17",
"5  c #331715",
"6  c #351D19",
"7  c #3A1F1A",
"8  c #391A14",
"9  c #2A201C",
"0  c #3D221D",
"q  c #191F20",
"w  c #1C2324",
"e  c #1F2728",
"r  c #222A2B",
"t  c gray17",
"y  c #222526",
"u  c #392C26",
"i  c #352923",
"p  c #3E312A",
"a  c #262F30",
"s  c #273032",
"d  c #293334",
"f  c #2C3638",
"g  c #2D3839",
"h  c #333333",
"j  c #313C3E",
"k  c gray23",
"l  c #441617",
"z  c #45241D",
"x  c #56281F",
"c  c #4D2A24",
"v  c #492321",
"b  c #5E292A",
"n  c #572C23",
"m  c #45362F",
"M  c #5C322A",
"N  c #4E3C34",
"B  c #513F37",
"V  c #672824",
"C  c #66352C",
"Z  c #7C392C",
"A  c #6E3031",
"S  c #6B3B31",
"D  c #763334",
"F  c #733F35",
"G  c #5A463C",
"H  c #764137",
"J  c #7C4339",
"K  c #333F41",
"L  c #364345",
"P  c #384648",
"I  c #3B494B",
"U  c #454545",
"Y  c #504F4F",
"T  c #415153",
"R  c #465659",
"E  c #495B5E",
"W  c #5E5D5D",
"Q  c #72594C",
"!  c #7D6154",
"~  c #4C5E61",
"^  c #4E6164",
"/  c #506366",
"(  c #636363",
")  c #686768",
"_  c DimGray",
"`  c #777777",
"'  c #803839",
"]  c #8E3E3F",
"[  c #933132",
"{  c #803A2D",
"}  c #A43637",
"|  c #B63C3D",
" . c #89473A",
".. c #9B4939",
"X. c #AD4F3D",
"o. c #A44B3A",
"O. c #AF513F",
"+. c #945144",
"@. c #9C5548",
"#. c #8C4C40",
"$. c #AE4C4E",
"%. c #A44849",
"&. c #A3594B",
"*. c #AA5D4E",
"=. c #B35543",
"-. c #B65B4A",
";. c #BA5D4C",
":. c #B54F51",
">. c #B75052",
",. c #8A6B5C",
"<. c #BC604E",
"1. c #B56354",
"2. c #BC6555",
"3. c #BF6858",
"4. c #957464",
"5. c #9B7868",
"6. c #A27E6C",
"7. c #C74243",
"8. c #D24546",
"9. c #D84748",
"0. c #CB595B",
"q. c #E34C4D",
"w. c #E64F50",
"e. c #EE5A5B",
"r. c #E65051",
"t. c #C56B5A",
"y. c #C86D5C",
"u. c #F15E60",
"i. c #DC6163",
"p. c #E86668",
"a. c #EA6768",
"s. c #F36163",
"d. c #F46B6D",
"f. c #FA6C6E",
"g. c #FD6F71",
"h. c #A5806E",
"j. c #AB8473",
"k. c #AF8875",
"l. c #B68D7A",
"z. c #B88F7B",
"x. c #BB917D",
"c. c #908F90",
"v. c #959494",
"b. c #9C9B9C",
"n. c #A5A4A4",
"m. c #ADABAC",
"M. c #B0AFAF",
"N. c #B3B2B2",
"B. c gray72",
"V. c #C69984",
"C. c #CB9D88",
"Z. c #CFA18B",
"A. c #D3A48D",
"S. c #D7A790",
"D. c #DEAC94",
"F. c #E2AF97",
"G. c #E3B098",
"H. c #C0BFBF",
"J. c #C8C6C7",
"K. c #C9C7C8",
"L. c #CDCBCC",
"P. c #C5C3C4",
"I. c #D3D2D2",
"U. c #DCDADB",
"Y. c #E5E3E4",
"T. c #E8E6E7",
"R. c #EFEDEE",
"E. c #EEECED",
"W. c #EFEDEE",
"Q. c #E9E7E8",
/* pixels */
"                                                      . . . . . . . . . .                                                       ",
"                                                . . . . . . . o o . . . . . . .                                                 ",
"                                            . . . + r P I E ^ / / ~ R I L s + . . . .                                           ",
"                                        . . . r I / / / / / / / / / ^ / ^ / ^ I w . . .                                         ",
"                                      . . , T / / / / / / / / / / / / / / / / / / R , . .                                       ",
"                                    . . d ^ / / / / / / / / / / / / / / / / / / / / ^ a . .                                     ",
"                                  . . K / / / / / / / / ~ P s : : d P E / / / / / / / / P . .                                   ",
"                                  w I / / / / / / / / j o . . . . . . o j / / / / / / / ^ P . .                                 ",
"                                / / / / / / / / / E , . @ ( v.K.K.v.( o . , E / / / / / / / L . .                               ",
"                            . * / / / / / / / / ^ , . h K.R.R.R.R.R.R.K.h . , ^ / / / / / / / I o . .                           ",
"                        . . o P / / / / / / / / f . k Q.R.R.R.R.R.R.R.R.Q.k . f / / / / / / / / T o . .                         ",
"                      . . = R ^ / / / / / / / R . + L.R.R.R.R.R.R.R.R.R.R.L.+ . R / / / / / / / ^ R + . .                       ",
"          . . . . . . . y ^ / / / / / / / / ^ j . ` R.R.R.R.R.R.R.R.R.R.R.R.` . j / / / / / / / / / E e . . . . . . .           ",
"      . . . . . . = s R ^ / / / / / / / / / / r . m.R.R.R.R.R.R.R.R.R.R.R.R.m.. r / / / / / / / / / ^ ^ E r , o . . . . .       ",
"      . O e f P R ^ / / / / / / / / / / / / / , . U.R.R.R.R.R.R.R.R.R.R.R.R.U.. , / / / / / / / / / / / / / / / ~ I d + .       ",
"      . : I I I T / / / / / / / / / / / / / / = . U.E.) m.R.R.R.R.R.R.m.) R.U.. = / / / / / / / / / / / / / / / / / / r .       ",
"      . + I P I R / / / / / / / / / / / / / / r . n.L.. U R.R.R.R.R.R.U . K.n.. r / / / / / / / / / / / / / / / / / / = .       ",
"      . . g I P T / / / / / / / / / / / / / ^ L . U U.k c.R.R.R.R.R.R.c.k U.U . P / / / / / / / / / / / / / / / / / I . .       ",
"        . = I P T / / / / / / / / / / / / / / ~ , . > B.R.R.R.R.R.R.R.R.H.> . , ~ ^ / / / / / / / / / / / / / / / / , .         ",
"        . . s I I / / / / / / / / / / / / / / / ~ e . t R.T.R.Q.Q.R.T.R.t . w ^ / / / / / / / / / / / / / / / / / L . .         ",
"          . + P I ~ / / / / / / / / / / / / / / / / . , n.o n.h h n.o n.- . / / / / / / / / / / / / / / / / / / ^ + .           ",
"          . . e I R / / / / / / / / / / / / / / / / w . . . . . . . . X . w / / / / / / / / / / / / / / / / / / d . .           ",
"            . . L I / / / / / / / / / / / / / / / / T q + > O , , O : O q T / / / / / / / / / / / / / / / / / E o .             ",
"            . . : I E / / / / ^ / / / / / / / / / / / / / ^ / ^ ^ / / / / / / / / / / / / / / / / / / / / / / e . .             ",
"            . . . s L T T T T T T T T T T T T T T T T T T T T T T T T T T T T T T T T T T T I T T T T T T T P . . .             ",
"          . . . . . . . . . . . . . . . . . . . . . . . . . . . . . . . . . . . . . . . . . . . . . . . . . . . . . .           ",
"        . . u l.. X 5 7 0 X . m & . $ 0 0 X . 9 m m m m m N m m m m m m m m m m 4 . X 0 0 $ . # m . X 0 0 0 X . x.u . .         ",
"        . u G.S.. $ X.t.y.3 . V.N . H 2.2.z . ,.G.G.G.G.G.G.G.G.G.G.G.G.G.G.G.G.,.. z 2.2.F . G C.. 3 y.y.y.2 o G.G.u .         ",
"      . . ,.G.D.. # X.<.y.0 . 6.k.. . . . . @ A.G.G.G.G.G.G.G.G.G.G.G.G.G.G.G.G.S.X . . . . . k.k.. 7 y.y.y.$ ; G.F.,.. .       ",
"      . . V.G.G.X X O.;.y.c . ! G.h.m . o G x.G.G.G.G.G.G.G.G.G.G.G.G.G.G.G.G.G.G.x.G o . m h.G.4.. c y.y.y.@ 9 G.F.V.. .       ",
"      . . j.F.G.4 . o.-.y.S . G G.G.A.. 4 G.G.G.G.G.G.G.G.G.G.G.G.G.G.G.G.G.G.G.G.G.G.9 . A.G.G.Q . S y.y.3.. p G.G.j.. .       ",
"        . p F.G.N . { =.y.@.. i G.G.D.# m G.G.G.G.G.G.G.G.G.G.G.G.G.G.G.G.G.G.G.G.G.G.m @ F.G.G.N . @.y.y.+.. N G.G.p .         ",
"        . . G A.! . x X.y.y.X @ S.G.G.Z.D.G.G.G.G.G.G.F.G.G.F.A.A.G.G.G.G.G.G.G.G.G.G.D.Z.F.G.D.X X y.y.y.S . Q A.B . .         ",
"          . . . & . 5 X.2.y.c . Q G.G.G.F.G.G.G.G.G.G.D.,.B ; . . ; N ,.F.G.G.G.G.G.G.G.G.G.G.,.. c y.y.y.0 . ; . . .           ",
"            . . . . X ..-.y.1.o @ Z.G.G.F.G.G.G.G.G.5.4 . . . 3 3 . . . 4 5.G.G.G.G.G.G.G.G.D.& X 1.y.y.1.. . . . .             ",
"                  . . x O.y.y.C . N D.G.G.G.G.G.l.u . . 0 +.3.y.y.t.+.0 . . u l.G.G.G.G.G.D.N . C y.y.y.C . .                   ",
"                    . # O.<.y.3.$ . u l.F.C.4.B . . 2 +.y.H *.y.y.*.H y.+.2 . . G 4.C.D.l.u . $ 3.y.y.t.# .                     ",
"                    . . V O.y.y.1.6 . . . . . . # J y.y.&.. . 7 7 . . &.y.y.J # . . . . . . 6 1.y.y.y.H . .                     ",
"                      . X ..<.y.y.y.H 6 & 4 M  .t.y.y.y.y.F X . . X F y.y.y.y.t. .M 4 $ 6 H t.y.y.y.1.@ .                       ",
"                        . 8 O.y.y.y.y.y.y.y.y.y.y.y.y.y.y.y.1.+.+.1.y.y.y.y.y.y.y.y.y.y.y.y.y.y.y.y.v .                         ",
"                        . . V =.y.y.y.y.y.y.y.y.y.y.y.y.y.y.y.y.y.y.y.y.y.y.y.y.y.y.y.y.y.y.y.y.y.J . .                         ",
"                          X X Z ;.y.y.y.y.y.y.y.y.y.y.y.y.y.y.y.y.y.y.y.y.y.y.y.y.y.y.y.y.y.y.y.+.. .                           ",
"                            . X  .;.t.y.y.y.y.y.y.y.y.y.y.y.y.y.y.y.y.y.y.y.y.y.y.y.y.y.y.y.y.&.X .                             ",
"                              . X Z ;.y.y.y.y.y.y.y.y.y.y.y.y.y.y.y.y.y.y.y.y.y.y.y.y.y.y.y.#.X .                               ",
"                                . . n ;.y.y.y.y.y.y.y.y.y.y.y.y.y.y.y.y.y.y.y.y.y.y.y.y.y.S . .                                 ",
"                                . . . 5 ..y.y.y.y.y.y.y.y.y.y.y.y.y.y.y.y.y.y.y.y.y.y.&.7 . . .                                 ",
"                            . . . l < . . x ;.y.y.y.y.y.y.y.y.y.y.y.y.y.y.y.y.y.y.2.M X . 3 v . . .                             ",
"                          . . % } e.f.] @ . X z +.y.y.y.y.y.y.y.y.y.y.y.y.y.y.@.c X . @ ] f.g.>.% . .                           ",
"                        . . < 7.s.g.g.g.p.5 . . . # z F &.2.2.2.2.2.2.&.H c $ . . . 5 p.g.g.g.g.i.2 . .                         ",
"                      . . < 8.s.g.g.g.g.g.b . W U o . X . . . . . . . . . . O U W . b g.g.g.g.g.g.p.5 . .                       ",
"                      . @ 7.e.g.g.g.g.g.g.b . N.R.Q.m.W . o * o o = X . W M.Q.R.N.. b g.g.g.g.g.g.g.i.@ .                       ",
"                    . . [ q.f.g.g.g.g.g.g.b . N.R.R.R.L.. t I.I.I.I.y . L.R.R.R.N.. b g.g.g.g.g.g.g.g.%.. .                     ",
"                    . l q.u.g.g.g.g.g.g.g.b . N.R.R.Q.( . . ` L.I.` . X ( R.R.R.N.. b g.g.g.g.g.g.g.g.g.v .                     ",
"                  . . } q.f.g.g.g.g.g.g.g.b . N.R.R.b.. = + . - , . o - . v.R.R.N.. b g.g.g.g.g.g.g.g.g.>.. .                   ",
"                  . < q.e.g.g.g.g.g.g.g.g.b . N.R.P.+ o v.b.h X o t b.v.o @ P.R.N.. b g.g.g.g.g.g.g.g.g.g.1 .                   ",
"                  . V q.s.g.i.' d.g.g.g.g.b . N.R.Y . ) B.B.B.B.B.B.B.B.) . Y R.N.. b g.g.g.g.d.' i.g.g.g.D .                   ",
"                  . [ q.d.g.D . >.g.g.g.g.b . N.Q.+ - B.B.B.B.B.B.B.B.B.B.+ + Q.N.. b g.g.g.g.>.. D g.g.g.%..                   ",
"                . . | q.f.f.D . $.g.g.g.g.b . N.m.. U B.B.B.B.B.B.B.B.B.B.U . M.N.. b g.g.g.g.$.. A g.g.g.0.. .                 ",
"                . . 9.r.g.g.A . $.g.g.g.g.b . N.I.X - U - t U > > U h - U - X I.N.. b g.g.g.g.$.. A g.g.g.a.. .                 ",
"                . . 9.w.g.g.A . $.g.g.g.g.b . N.E.W . . + . . O . . . + . . ( R.N.. b g.g.g.g.$.. A g.g.g.d.. .                 ",
"                . . 9.q.g.g.A . $.g.g.g.g.b . N.E.R.P.n.Q.L.b.Y.Y.b.L.Q.n.L.R.R.N.. b g.g.g.g.$.. A g.g.g.a.. .                 ",
"                . . 8.q.g.g.A . $.g.g.g.g.V . N.R.R.R.R.R.R.R.R.R.R.R.R.R.R.R.R.N.. b g.g.g.g.$.. A g.g.g.p.. .                 ",
"                . . # $ 1 $ X . # 1 $ $ $ @ . , > > > > > 4 > > > > > > w 4 > > - . @ $ 1 $ $ % . X $ 1 $ $ . .                 ",
"                  . . . . . . . . . . . . . . . . . . . . . . . . . . . . . . . . . . . . . . . . . . . . . .                   "
};
