/* XPM */
static char *ae46a6bc3b7f4931d6262034f7a49215Wcb0XGqTpqrRgExx[] = {
/* columns rows colors chars-per-pixel */
"64 64 87 1 ",
"  c None",
". c #2D849C",
"X c #2D859C",
"o c #2D859D",
"O c #2D869D",
"+ c #2D879D",
"@ c #2D879E",
"# c #2D889E",
"$ c #2D899F",
"% c #2D8A9E",
"& c #2D8A9F",
"* c #2D8BA0",
"= c #2D8CA0",
"- c #2D8CA1",
"; c #2D8DA1",
": c #2E8DA1",
"> c #2D8EA1",
", c #2E8EA1",
"< c #2D8FA2",
"1 c #2E8EA2",
"2 c #2E8FA2",
"3 c #2E8FA3",
"4 c #2E90A2",
"5 c #2E90A3",
"6 c #2E91A3",
"7 c #2E92A3",
"8 c #2E92A4",
"9 c #2E93A4",
"0 c #2E94A4",
"q c #2E94A5",
"w c #2E95A5",
"e c #2E96A5",
"r c #2E96A6",
"t c #2E97A6",
"y c #2E97A7",
"u c #2E98A7",
"i c #2E99A7",
"p c #2E99A8",
"a c #2E9AA8",
"s c #2E9BA8",
"d c #2E9BA9",
"f c #2E9CA9",
"g c #2E9DA9",
"h c #2E9DAA",
"j c #2E9EAA",
"k c #2F9EAA",
"l c #2F9FAA",
"z c #2F9FAB",
"x c #2FA0AB",
"c c #2FA1AB",
"v c #2FA1AC",
"b c #2FA2AC",
"n c #2FA3AC",
"m c #2FA3AD",
"M c #2FA4AD",
"N c #2FA5AE",
"B c #2FA5AF",
"V c #2FA6AE",
"C c #2FA6AF",
"Z c #2FA7AF",
"A c #2FA8AF",
"S c #30A8AF",
"D c #2FA8B0",
"F c #2FA9B0",
"G c #2FAAB0",
"H c #2FAAB1",
"J c #2FABB1",
"K c #2FACB1",
"L c #2FACB2",
"P c #2FADB2",
"I c #2FAEB2",
"U c #2FAEB3",
"Y c #2FAFB3",
"T c #30AFB3",
"R c #30B0B3",
"E c #30B0B4",
"W c #30B1B4",
"Q c #30B2B5",
"! c #30B3B5",
"~ c #30B4B6",
"^ c #30B5B6",
"/ c #30B5B7",
"( c #30B6B7",
") c #30B7B7",
"_ c #30B7B8",
"` c #30B8B8",
"' c #31B8B8",
/* pixels */
"````````````````````````````````````````````````````````````````",
"````````````````_``)``````````````````````````````````````__````",
"xJ^`````````````ImmJQ`````````````^NmNI``_`````````^QJmNI``_````",
"...h`_````````J$X...XsQ`````````Q7.....8I_````````Q7.....2T^````",
"w*..7^``````_s..;ww2..XJ```````A...wi8...m```````J$X.8iw...s````",
"``N$.*I^```^8.$N````I*..N)`)__m..h^```^7..m^```^N..8Q````h..w^``",
"```R$..wxmw$.*I_````_Q2..7mNh&.XN`````__w..7xNx2..s_)`````N..*iN",
"````I8......w^``````_`)s..X...2I`````````m$......N``_``````U2..2",
"``````ThiwmI``````````)_QmiwhI)```````````^mhwsN)```````````)Nhw",
"````````````````````````)```````````````````````````````````)```",
"````````````````````````__````````__`````````````````_``````_```",
"````````````````````````__````````__`````````````````_``````_```",
"````````````````````````__````````__`````````````````_``````_```",
".7h^```````````Nw$.2sQ````````_)`Js*.2wJ`_`````````Qh7.$7m)`````",
".XX$J````````Q2.......s)```````)s.......8Q````````N.......$J````",
"YN7.Xh``````J$.*NQ^Nw..7___```Q7..xYQJs.X$Y)`````s..iJQYx$..m```",
"``^w..wR``Qh..i_`^```h..*J_``N2.2^```__J..$N^``Y8..J`````Y2..iQ`",
"````w....*...m````````m...$*...w^```````I*X..2...2Q```````^i.X..",
"`````I2...$wI^````````^^s....8N``````````^m..X.2s_``````````m2..",
"```````_QI````````````````)I)```````````````)IQ`_```````````)`)N",
"``````````````````````````)_```````````````````````_````````````",
"``````````````````````````)_```````````````````````_````````````",
"``````````````````````````)_```````````````````````_````````````",
"vT``````````````RmNAQ`````````````^NmNI_```````````_)JxNI^``````",
"...h``````````A2.....i^`````````Q8.....8I`````````)s.....$N`````",
"8$XX8^``````_h..$ws2...I````__`N..$wi7X..h```````Q2..8iw...8^^``",
"``A..*I_``_^8..N``))J$..N```_)m..h^```Q2..i`````I..8Q`_`^h..2Q``",
"```I...wmNs..*U``````Q*..7mNx2..N```````w..$hNx0..i_)`````N.X$ih",
"````I8......w^````````Qs......2U`````````x$.XXXX.N`````````I$...",
"``````JhwwmU_```````````QhswhJ^```````````)mhwsN)```````````^Ti2",
"`````````````````````````_``__````````````)_)```__````````````_)",
"````````````````````````````````````````````````````````````````",
"````````````````````````````````````````````````````````````````",
"````````````````````````````````````````````````````````````````",
"$wh)``````````^Ts*27h^`````````_`Ih2$7wT)``````````^x8228N)`````",
"...*I````````Q7.......x````````)hX..XX..wQ````````J.......2J````",
"Ih*..m_```_`I*.*vTQm2..w)`````)7X.hTTJw..2Q^`````h..wJUIh...N_``",
"``)w..wQ``^m..w^`^``^i..7I`_)J2.$Q``_``N.X$J)``Yw..J````)I2..s)`",
"````8...$2...h````````h...$2$..7^```````J$X..2*..2I```````)7.X.$",
"````)J2....7J``````````Qw....2x`_````````^s....*i^```````_)`m$.X",
"``````_)IJ)_`````````````^IJQ``````````````^QIU`^`````````````QN",
"`````__```__``````````````__`````````````````_``````````````````",
"````````````````````````````````````_````````````````)`_````````",
"````````````````````````````````````_````````````````)`_````````",
"ZQ`^````````````_JJQ__`````````````IJU^_`````````````QAJQ```````",
"..$Z``````````Iw.....h_````````_^w$....wQ^`````_``)h*....2I`````",
"2...i_```````m...88...2I```_```I2..28*...N`````__)7..277...w````",
"`^hX.2Q^```^i..x^```N..$J_`)__J..wQ```I*..m^``^^Q2.2J```Qw..8))_",
"```J...hNAx2..J``````Y$..sJJN8..h_````_^7..8mITs..2)``````h..$hN",
"``_`T*......2R````````Q7.......J````````_h......Xh)_```````A$...",
"``__^^Zi72iN````````````Jw72wN^```````````Qsw27hI```````````Qxw$",
"````````````````````````````````````````````````_```````````````",
"````````````````````````````````````````````````````````````````",
"`^````````````````__`````````````````````````````````````)``````",
"`^````````````````__`````````````````````````````````````)``````",
"7hS````````````Ix8wsN^``````````_^Nw7ixQ``````````__Ah8whI``````",
"...7Q````````^s......$J`````````N......Xh^````````U;X.XX..wQ````",
"Ns...J`_```^Q7..sNJs$..h``````^i..wNTv2..7^``````NX.*mNNw..*I```",
"_`Q7..m_```J$.8Q````^8..w^```Y8..I`````h..2Q```^hXXm_```_J...Z``",
"```^2...7w$..w_```````w...8w7..2Q```````m...2w8..XZ``````)Q7...<",
"````^m$....$N``````````J2.....i_`````````Qw....X7Q`````````)s...",
"``````^INmQ`^```````````_IJNI^`````````````QJNJ^_```````````_)Ih",
"````````````````````````_```````````````````^```_`````````````__",
"````````````````````````````````````````````````````````````````"
};
